<?xml version="1.0" encoding="UTF-8" standalone="no"?>
<svg  xmlns:svg="http://www.w3.org/2000/svg" xmlns="http://www.w3.org/2000/svg" xmlns:xlink="http://www.w3.org/1999/xlink" preserveAspectRatio="xMidYMid meet"
width="100%" height="100%" viewBox="0 0 100 50">
 <title>Blatt</title>
 <g transform="scale(3.8) translate(-0.1 0)">
 <path id="blatt_1"  style="fill:#045104;"
     d="m 8.4616445,5.0684632 c 0,0 -1.3412402,0.2902074 -2.4255309,0.5212758 -0.252908,0.053896 0.6406751,2.0555375 1.352802,3.1777901 C 7.5345821,8.9970873 4.7522033,5.8909929 4.4899866,5.9613063 2.9844514,6.3650156 1.5167986,6.8838544 0.1100708,7.5199543 V 13.291695 L 26.488305,13.549043 V 7.9902099 C 24.191748,6.8424597 19.710675,5.594623 16.713253,5.561632 16.115214,6.6883711 16.46546,8.42955 16.313693,8.4515213 15.971873,8.5010068 15.461929,6.6427819 15.275151,5.3828235 13.129903,5.3383952 12.336487,5.0929883 11.164352,5.0317107 10.258605,6.6882603 12.025675,9.7038654 12.025675,9.7038654 10.836072,8.163709 9.1427586,8.1976476 8.4616445,5.0684632 Z"/>
    
  <path  id="blatt_2"
     style="fill:#045104;"
     d="m 15.620322,5.8274691 c 0.671275,-0.2348123 1.516576,-0.4781962 2.42329,-0.7520076 0.07796,-0.023544 0.143934,-0.5669959 0.135602,-0.6999193 0.129588,0.1132917 0.184769,0.369555 0.112597,0.6225237 3.076941,-0.9465438 6.82615,-2.3256548 6.701952,-4.83393997 -1.824777,-0.49611773 -3.535252,0.56398239 -5.049045,1.24368527 0.212375,0.2346193 0.256882,0.3453303 0.191573,0.737009 -0.131543,-0.3811997 -0.296465,-0.4929326 -0.539409,-0.5747017 -0.570666,0.4645289 -0.594201,0.4653064 -0.781824,0.6254109 0.355044,0.077251 0.402146,0.4575653 0.375408,0.7125751 -0.103014,-0.419944 -0.366404,-0.5026914 -0.60682,-0.504471 -1.159376,1.0701386 -2.224488,2.2979892 -2.963324,3.4238356 z" />
	</g>
</svg>