<?xml version="1.0" encoding="UTF-8" standalone="no"?>
<svg  xmlns:svg="http://www.w3.org/2000/svg" xmlns="http://www.w3.org/2000/svg" xmlns:xlink="http://www.w3.org/1999/xlink" preserveAspectRatio="xMidYMid meet"
width="100%" height="100%" viewBox="0 0 100 100">
 <title>Papa</title> 
<desc>Papa</desc>
 <defs>
  <style type="text/css">
   <![CDATA[
    .telo {fill:none; fill-rule:evenodd; stroke:black; stroke-width:1; stroke-linecap:round; stroke-linejoin:round;}
		.mund {fill:none; fill-rule:evenodd; stroke:black; stroke-width:1; stroke-linecap:round; stroke-linejoin:round;}
		.hare {fill:none; fill-rule:evenodd; stroke:black; stroke-width:1; stroke-linecap:round; stroke-linejoin:round;}
		.augen {fill:black; fill-rule:evenodd; stroke:none;}
   ]]>
  </style>
 </defs>
 <path class="telo"
     d="m 24.551371,2.927678 c -0.949135,-0.02922 -1.098583,1.932655 0.668307,5.078755 -3.961155,-2.848664 -3.0529,1.211756 0.0244,4.036816 0.45852,0.420934 1.014771,0.78414 1.611827,1.131938 1.255532,1.557003 0.444619,3.160458 1.69079,6.617709 -0.0072,0.06531 0.01302,0.128485 0.06793,0.18753 1.094879,3.964684 3.784357,5.987977 7.236021,7.083457 5.121728,0.982044 3.951013,1.28043 3.687753,5.59493 -0.445361,7.436755 -0.613595,21.031961 -0.986323,22.563124 -1.671347,7.835636 3.972094,22.951113 -0.715042,33.827037 -4.219537,0.131845 -8.089845,1.190921 -10.276249,5.06801 H 46.535713 L 46.177316,56.532292 c 0.09069,-1.209596 0.559065,-1.139344 0.669466,-0.06097 l 2.088086,37.641312 18.201247,0.0196 C 65.953048,90.517602 58.524007,88.707962 55.98544,88.313467 L 55.106947,68.062689 c -0.567476,-2.746114 0.818101,-21.494657 1.340381,-24.440881 0.458829,-2.648274 0.693715,-8.571387 0.693979,-11.949964 -0.179022,-2.225747 0.237907,-2.274244 2.083845,-2.271317 2.507588,-0.155301 5.674224,-1.276471 7.888318,-3.184004 l 8.96e-4,5.6e-4 c 2.116877,-1.574548 2.916249,-4.366684 3.149909,-7.408233 0.142765,-1.290751 0.17374,-2.210995 0.903458,-3.115941 0.597055,-0.347795 1.153306,-0.710997 1.611824,-1.131932 3.077301,-2.82506 3.985835,-6.885487 0.02485,-4.03682 3.141145,-5.593061 0.225295,-7.442862 -2.472022,-1.018128 1.377194,-5.419924 -2.191763,-5.013939 -2.418609,-0.444182 -0.03045,0.549213 -0.226485,1.530995 -0.760333,0.507465 -1.954155,-2.86879 -3.514745,-0.33432 -0.870362,4.961761 -1.362256,4.114047 -1.244124,5.232339 -2.966719,7.157693 -2.829561,1.20148 -4.615986,1.189034 -8.671971,0.672367 0,0 -0.45213,-0.0785 -1.070972,-0.180565 3.387457,-2.349931 7.023313,-5.463027 7.241307,-8.118054 C 61.218133,7.702895 56.190887,4.20635 49.977298,4.20635 c -6.213588,0 -11.250543,3.996499 -11.25054,8.926291 0,2.527374 2.359378,5.785175 4.659249,8.361916 -0.04483,0.021 -0.0862,0.04333 -0.121065,0.06766 C 39.058618,21.825138 36.14043,20.429575 34.638841,19.076843 33.694722,17.808209 33.070759,16.02884 31.741032,12.013024 34.385419,6.716955 32.824824,4.182469 30.870672,7.051266 30.336807,8.074796 30.140927,7.093006 30.110338,6.543793 29.883493,1.974042 26.314539,1.568051 27.691732,6.987974 26.511659,4.177154 25.289621,2.950071 24.551399,2.927352 Z" />
  <path class="hare"
     d="M 59.920611,1.022781 C 57.890763,1.117441 56.569122,2.946725 56.561139,4.590872 57.70347,3.422684 58.755156,2.874489 61.078461,3.318504" />
  <path class="mund"
     d="m 43.370076,12.826141 c 3.22326,6.810594 9.530568,4.227711 11.700573,0" />
  <circle class="augen" r="1" cx="46.652298" cy="10.263638" />
  <circle class="augen" r="1" cx="52.319702" cy="10.440742" />
</svg>