<svg  xmlns:svg="http://www.w3.org/2000/svg" xmlns="http://www.w3.org/2000/svg" xmlns:xlink="http://www.w3.org/1999/xlink" preserveAspectRatio="xMidYMid meet"
width="100%" height="100%" viewBox="0 0 100 100">
 <title>Junge</title> 
<desc>Junge</desc>
 <defs>
  <style type="text/css">
   <![CDATA[
    .telo {fill:none; fill-rule:evenodd; stroke:black; stroke-width:1; stroke-linecap:round; stroke-linejoin:round;}
		.mund {fill:none; fill-rule:evenodd; stroke:black; stroke-width:1; stroke-linecap:round; stroke-linejoin:round;}
		.hare {fill:none; fill-rule:evenodd; stroke:black; stroke-width:1; stroke-linecap:round; stroke-linejoin:round;}
		.augen {fill:black; fill-rule:evenodd; stroke:none;}
   ]]>
  </style>
 </defs>
 
 <path class="telo"
     d="m 24.551371,40.927678 c -0.949135,-0.02922 -1.098583,1.932655 0.668307,5.078755 -3.961155,-2.848664 -3.0529,1.211756 0.0244,4.036816 0.45852,0.420934 1.014771,0.78414 1.611827,1.131938 1.255532,1.557003 0.444619,3.160458 1.69079,6.617709 -0.0072,0.06531 0.01302,0.128485 0.06793,0.18753 1.512295,5.476198 6.066824,7.248539 11.470021,7.987994 -0.903091,1.883686 -1.037299,3.21895 -1.53257,5.253517 -1.671347,7.835636 3.972094,6.951113 -0.715042,17.827037 -4.219537,0.131845 -8.089845,1.190921 -10.276249,5.06801 h 18.974928 l 0.868329,-11.584692 c 0.09069,-1.209596 0.559065,-1.139344 0.669466,-0.06097 l 0.86136,11.641312 18.201247,0.0196 C 65.953048,90.517602 58.524007,88.707962 55.98544,88.313467 l -0.878493,-4.250778 c -0.567476,-2.746114 0.818101,-5.494657 1.340381,-8.440881 0.619371,-3.574893 0.830669,-7.11726 0.607628,-8.312569 2.22089,0.487763 7.242141,-0.666296 10.058514,-3.092716 l 8.96e-4,5.6e-4 c 2.116877,-1.574548 2.916249,-4.366684 3.149909,-7.408233 0.142765,-1.290751 0.17374,-2.210995 0.903458,-3.115941 0.597055,-0.347795 1.153306,-0.710997 1.611824,-1.131932 3.077301,-2.82506 3.985835,-6.885487 0.02485,-4.03682 3.141145,-5.593061 0.225295,-7.442862 -2.472022,-1.018128 1.377194,-5.419924 -2.191763,-5.013939 -2.418609,-0.444182 -0.03045,0.549213 -0.226485,1.530995 -0.760333,0.507465 -1.954155,-2.86879 -3.514745,-0.33432 -0.870362,4.961761 -1.362256,4.114047 -1.244124,5.232339 -2.966719,7.157693 -2.829561,1.20148 -4.615986,1.189034 -8.671971,0.672367 0,0 -0.45213,-0.0785 -1.070972,-0.180565 3.387457,-2.349931 7.023313,-5.463027 7.241307,-8.118054 0.403407,-6.359619 -4.623839,-9.856164 -10.837428,-9.856164 -6.213588,0 -11.250543,3.996499 -11.25054,8.926291 0,2.527374 2.359378,5.785175 4.659249,8.361916 -0.04483,0.021 -0.0862,0.04333 -0.121065,0.06766 -4.206324,0.262921 -7.124512,-1.132642 -8.626101,-2.485374 -0.944119,-1.268634 -1.568082,-3.048003 -2.897809,-7.063819 2.644387,-5.296069 1.083792,-7.830555 -0.87036,-4.961758 -0.533865,1.02353 -0.729745,0.04174 -0.760334,-0.507473 -0.226845,-4.569751 -3.795799,-4.975742 -2.418606,0.444181 -1.180073,-2.81082 -2.402111,-4.037903 -3.140333,-4.060622 z" />
		 
<path class="hare"
     d="m 59.920611,39.022781 c -2.029848,0.09466 -3.351489,1.923944 -3.359472,3.568091 1.142331,-1.168188 2.194017,-1.716383 4.517322,-1.272368" />
<path class="mund"
     d="m 43.370076,50.826141 c 3.22326,6.810594 9.530568,4.227711 11.700573,0" />
  <circle class="augen" r="1" cx="46.652298" cy="48.263638" />
  <circle class="augen" r="1" cx="52.319702" cy="48.440742" />
 
 </svg>