<svg  xmlns:svg="http://www.w3.org/2000/svg" xmlns="http://www.w3.org/2000/svg" xmlns:xlink="http://www.w3.org/1999/xlink" preserveAspectRatio="xMidYMid meet"
width="100%" height="100%" viewBox="0 0 100 100">
 <title>Mädchen</title> 
<desc>Mädchen</desc>
 <defs>
  <style type="text/css">
   <![CDATA[
    .telo {fill:none; fill-rule:evenodd; stroke:black; stroke-width:1; stroke-linecap:round; stroke-linejoin:round;}
		.mund {fill:none; fill-rule:evenodd; stroke:black; stroke-width:1; stroke-linecap:round; stroke-linejoin:round;}
		.hare {fill:none; fill-rule:evenodd; stroke:black; stroke-width:1; stroke-linecap:round; stroke-linejoin:round;}
		.augen {fill:black; fill-rule:evenodd; stroke:none;}
   ]]>
  </style>
 </defs>
  <path class="telo"
     d="m 24.550781,40.927734 c -0.949135,-0.02922 -1.098921,1.932025 0.667969,5.078125 -3.961155,-2.848664 -3.051909,1.21205 0.02539,4.03711 0.45852,0.420934 1.014272,0.785014 1.611328,1.132812 1.255532,1.557003 0.445235,3.159937 1.691406,6.617188 -0.0072,0.06531 0.01345,0.128455 0.06836,0.1875 1.512295,5.476198 6.065553,7.248826 11.46875,7.988281 -0.903091,1.883686 -1.035979,3.219339 -1.53125,5.253906 -0.09701,0.454786 -0.16367,0.873399 -0.214843,1.273438 l -0.273438,-0.0078 c -5.494071,1.408947 -7.689976,3.582253 -10.175781,8.667969 1.615579,1.160298 6.177495,1.882312 11.703125,2.277344 -0.223709,1.463351 -0.734723,3.250345 -1.753906,5.615234 -4.219537,0.131845 -8.09094,1.191271 -10.277344,5.06836 H 46.535156 L 47.3125,83.767578 c 0.286925,0.0058 0.572103,0.01309 0.859375,0.01758 l 0.763672,10.328125 18.201172,0.01953 C 65.953652,90.51818 58.524895,88.706995 55.986328,88.3125 l -0.878906,-4.25 c -0.01978,-0.09574 -0.02,-0.191356 -0.03516,-0.287109 6.790854,-0.130048 12.580418,-0.596118 14.148437,-1.238282 -3.372124,-4.64258 -5.679216,-7.579147 -12.060547,-9.546875 l -0.326172,-0.0078 c 0.31027,-2.560479 0.387984,-4.777346 0.220704,-5.673828 2.220889,0.487763 7.24222,-0.665377 10.058593,-3.091797 h 0.002 c 2.116877,-1.574548 2.914778,-4.366654 3.148438,-7.408203 0.142765,-1.290751 0.174579,-2.210289 0.904297,-3.115235 0.597055,-0.347795 1.15281,-0.711877 1.611328,-1.132812 3.077301,-2.82506 3.986375,-6.885776 0.02539,-4.037109 3.141144,-5.593061 0.22466,-7.442313 -2.472657,-1.017579 1.377194,-5.419924 -2.191122,-5.013116 -2.417969,-0.443359 -0.03045,0.549213 -0.225917,1.529389 -0.759765,0.505859 -1.954155,-2.86879 -3.515477,-0.33319 -0.871094,4.962891 -1.362256,4.114047 -1.244202,5.232849 -2.966797,7.158203 -2.829561,1.20148 -4.61589,1.188542 -8.671875,0.671875 0,0 -0.45147,-0.07957 -1.070312,-0.18164 3.387457,-2.349931 7.02224,-5.462161 7.240234,-8.117188 0.403407,-6.359619 -4.624302,-9.855469 -10.837891,-9.855469 -6.213588,0 -11.250002,3.99599 -11.25,8.925781 0,2.527375 2.360286,5.784588 4.660157,8.361329 -0.04483,0.021 -0.08623,0.04403 -0.121094,0.06836 -4.206324,0.262921 -7.125364,-1.133596 -8.626953,-2.486328 -0.944119,-1.268634 -1.568711,-3.046684 -2.898438,-7.0625 2.644387,-5.296069 1.085012,-7.831688 -0.86914,-4.962891 -0.533865,1.02353 -0.73113,0.0414 -0.761719,-0.507812 -0.226845,-4.569751 -3.795162,-4.974611 -2.417969,0.445312 -1.180073,-2.81082 -2.402403,-4.037828 -3.140625,-4.060547 z" />
  <path class="hare" 
     d="m 45.567895,38.09174 c -1.875058,0.7832 -2.491342,2.954192 -1.936512,4.501916 0.673896,-1.488438 1.474664,-2.363271 3.809719,-2.74065" />
  <path class="hare"
     d="m 59.920611,39.022781 c -2.029848,0.09466 -3.351489,1.923944 -3.359472,3.568091 1.142331,-1.168188 2.194017,-1.716383 4.517322,-1.272368" />
  <path class="mund"
     d="m 43.370076,50.826141 c 3.22326,6.810594 9.530568,4.227711 11.700573,0" />
  <circle class="augen" r="1" cx="46.652298" cy="48.263638" />
  <circle class="augen" r="1" cx="52.319702" cy="48.440742"  />
 </svg>